Genre:Comedy | Drama | Romance
Language:English  http://www.imdb.com/title/tt1403988/
Source:DVD
Subtitles:Romana


Format : MPEG-4
Format profile : Base Media
Codec ID : isom
File size : 788 MiB
Duration : 1h 36mn
Overall bit rate : 1 141 Kbps

Video
Format settings, CABAC : Yes
Format settings, ReFrames : 3 frames
Codec ID : avc1
Codec ID/Info : Advanced Video Coding
Duration : 1h 36mn
Bit rate mode : Variable
Bit rate : 700 Kbps
Maximum bit rate : 6 146 Kbps
Width : 720 pixels
Height : 400 pixels
Display aspect ratio : 16:9
Frame rate mode : Constant
Frame rate : 23.976 fps
Color space : YUV
Chroma subsampling : 4:2:0
Bit depth : 8 bits
Scan type : Progressive
Bits/(Pixel*Frame) : 0.101
Stream size : 482 MiB (61%)
Writing library : x264

Audio
ID : 2
Format : AAC
Format/Info : Advanced Audio Codec
Format version : Version 4
Format profile : LC
Format settings, SBR : No
Codec ID : 40
Duration : 1h 36mn
Bit rate mode : Variable
Bit rate : 440 Kbps
Maximum bit rate : 545 Kbps
Channel(s) : 6 channels
Channel positions : Front: L C R, Side: L R, LFE
Sampling rate : 48.0 KHz
Stream size : 304 MiB (39%)


Plot:
Seven close friends reunite for the wedding of two of their friends. Problems arise because the bride and the maid of honor have had a long rivalry over the groom.
 
http://rapidhdd.com/images/530931vlcsnap-00001.png 
http://www.rapidhdd.com/images/830662vlcsnap-00005.png 
http://www.rapidhdd.com/images/260174vlcsnap-00002.png 
http://www.rapidhdd.com/images/530594vlcsnap-00003.png